<?xml version="1.0" encoding="UTF-8"?>
<svg id="Layer_2" data-name="Layer 2" xmlns="http://www.w3.org/2000/svg" viewBox="0 0 389.22 213.22">
  <defs>
    <style>
      .cls-1 {
        fill: #fff;
      }

      .cls-2 {
        fill: #008e4f;
      }
    </style>
  </defs>
  <g id="Layer_1-2" data-name="Layer 1">
    <g>
      <path class="cls-2" d="M0,213.22H38.61V97.39s12.52-57.48,66.78-57.96c0,0,53.22-7.59,71.48,59.36v114.43h212.35V97.86S375.13,3.48,283.83,.35c0,0-44.27-7.3-88.92,44.87,0,0-38.91-44.87-87.95-44.87C106.96,.35,18.26,.76,0,97.86v115.36Z"/>
      <path class="cls-1" d="M240.54,212.66s6.07-.33,17.8-30.26c0,0,7.43-34.83,9.98-35.22l8.61-17.71v-1.57l-13.79,18.2-.78-7.53s-2.54,9.98-4.21,12.03c0,0-9.88,11.54-11.54,12.62,0,0-2.05-2.64-1.47-7.24,0,0-5.87,16.24-13.4,17.71,0,0-2.05-14.67,2.25-23.28,0,0,12.13-27.98,44.02-25.63,0,0,1.27-.88,.59-2.64,0,0-13.3-3.23-26.32-2.54l2.05-3.62s-12.33,6.16-25.53,8.02l.68-4.3s-15.26,12.82-27.49,17.12c0,0,8.22-25.83,41.09-30.33,0,0,19.77-1.76,35.71,13.99,0,0,5.18-10.08-28.28-19.27l3.52-3.23s-20.84-4.79-37.47-6.36c0,0,7.34-9.78,31.11-9.88,0,0,17.12,.98,27.88,16.63l-3.82-9.2,6.75,3.33s-17.51-16.24-18.39-23.77c0,0,26.71,1.17,29.74,19.76,0,0,.68,13.21,0,15.65,0,0,8.22-18.88,16.83-21.13,0,0,5.67-2.54,14.67,1.66l12.72,10.27s-28.64,9.43-44.02,22.7l1.86,.39s16.73-9.49,27.29-9.2c0,0,9-1.66,19.86,1.86,0,0,15.26,5.58,27.29,24.75l-17.61-4.89-7.83-6.85,2.15,5.38-18.49-3.72-9.39-7.43,3.13,6.16s-21.72-4.3-29.64,0l.29,.88s18.78,.88,24.75,5.58c0,0,22.3,10.47,21.72,44.9,0,0-19.66-14.38-23.38-19.08,0,0,.68-9.88-1.66-12.13l-1.76,7.04s-13.3-20.54-22.11-24.26l-.2,1.57s9.49,7.63,9,16.24c0,0,1.76,20.84-1.08,28.66,0,0-15.07-17.12-16.53-25.73,0,0-5.09,18.68-4.99,24.75,0,0-2.35,36.68-2.05,40.7l-30.13-.55Z"/>
    </g>
  </g>
</svg>